<svg width="24" height="24" viewBox="0 0 24 24" data-glyph="media-control-pause" aria-hidden="true" xmlns="http://www.w3.org/2000/svg"><path fill="#fff" d="M17.33 22H16.66C14.66 22 13.99 21.33 13.99 19.33V4.65999C13.99 2.65999 14.66 1.98999 16.66 1.98999H17.33C19.33 1.98999 20 2.65999 20 4.65999V19.33C20 21.33 19.33 22 17.33 22ZM7.32999 22H6.65999C4.65999 22 3.98999 21.33 3.98999 19.33V4.65999C3.98999 2.65999 4.65999 1.98999 6.65999 1.98999H7.32999C9.32999 1.98999 9.99999 2.65999 9.99999 4.65999V19.33C9.99999 21.33 9.32999 22 7.32999 22Z"/></svg>